M48
; DRILL file {KiCad 7.0.7} date 2024 October 18, Friday 17:23:27
; FORMAT={-:-/ absolute / inch / decimal}
; #@! TF.CreationDate,2024-10-18T17:23:27-05:00
; #@! TF.GenerationSoftware,Kicad,Pcbnew,7.0.7
; #@! TF.FileFunction,Plated,1,2,PTH
FMAT,2
INCH
; #@! TA.AperFunction,Plated,PTH,ComponentDrill
T1C0.0394
; #@! TA.AperFunction,Plated,PTH,ComponentDrill
T2C0.0512
%
G90
G05
T1
X5.0787Y-2.8976
X5.0787Y-2.9976
X5.0787Y-3.0976
X5.0787Y-3.1976
X5.0787Y-3.2976
X5.0787Y-3.3976
X5.0787Y-3.4976
X5.0787Y-3.5976
X5.0787Y-3.6976
X5.0787Y-3.7976
X5.0787Y-3.8976
X5.0787Y-3.9976
X5.0787Y-4.0976
X5.0787Y-4.1976
X5.0787Y-4.2976
X5.0787Y-4.6425
X5.0787Y-4.7425
X5.0787Y-4.8425
X5.0787Y-4.9425
X5.0787Y-5.0425
X5.0787Y-5.1425
X5.0787Y-5.2425
X5.0787Y-5.3425
X5.5787Y-4.6425
X5.5787Y-4.7425
X5.5787Y-4.8425
X5.5787Y-4.9425
X5.5787Y-5.0425
X5.5787Y-5.1425
X5.5787Y-5.2425
X5.5787Y-5.3425
X5.6787Y-2.9
X5.6787Y-3.0
X5.6787Y-3.1
X5.6787Y-3.2
X5.6787Y-3.3
X5.6787Y-3.4
X5.6787Y-3.5
X5.6787Y-3.6
X5.6787Y-3.7
X5.6787Y-3.8
X5.6787Y-3.9
X5.6787Y-4.0
X5.6787Y-4.1
X5.6787Y-4.2
X5.6787Y-4.3
T2
X4.5549Y-4.7047
X4.5549Y-4.9016
X4.5549Y-5.0984
X4.5549Y-5.2953
T1
G00X4.5669Y-4.0551
M15
G01X4.5669Y-4.1339
M16
G05
G00X4.6457Y-4.2795
M15
G01X4.7244Y-4.2795
M16
G05
G00X4.8031Y-4.0551
M15
G01X4.8031Y-4.1339
M16
G05
T0
M30
