%TF.GenerationSoftware,KiCad,Pcbnew,7.0.7*%
%TF.CreationDate,2024-10-21T15:25:00-05:00*%
%TF.ProjectId,tmc,746d632e-6b69-4636-9164-5f7063625858,rev?*%
%TF.SameCoordinates,Original*%
%TF.FileFunction,Copper,L2,Bot*%
%TF.FilePolarity,Positive*%
%FSLAX46Y46*%
G04 Gerber Fmt 4.6, Leading zero omitted, Abs format (unit mm)*
G04 Created by KiCad (PCBNEW 7.0.7) date 2024-10-21 15:25:00*
%MOMM*%
%LPD*%
G01*
G04 APERTURE LIST*
G04 Aperture macros list*
%AMRoundRect*
0 Rectangle with rounded corners*
0 $1 Rounding radius*
0 $2 $3 $4 $5 $6 $7 $8 $9 X,Y pos of 4 corners*
0 Add a 4 corners polygon primitive as box body*
4,1,4,$2,$3,$4,$5,$6,$7,$8,$9,$2,$3,0*
0 Add four circle primitives for the rounded corners*
1,1,$1+$1,$2,$3*
1,1,$1+$1,$4,$5*
1,1,$1+$1,$6,$7*
1,1,$1+$1,$8,$9*
0 Add four rect primitives between the rounded corners*
20,1,$1+$1,$2,$3,$4,$5,0*
20,1,$1+$1,$4,$5,$6,$7,0*
20,1,$1+$1,$6,$7,$8,$9,0*
20,1,$1+$1,$8,$9,$2,$3,0*%
G04 Aperture macros list end*
%TA.AperFunction,ComponentPad*%
%ADD10R,3.500000X3.500000*%
%TD*%
%TA.AperFunction,ComponentPad*%
%ADD11RoundRect,0.750000X-0.750000X-1.000000X0.750000X-1.000000X0.750000X1.000000X-0.750000X1.000000X0*%
%TD*%
%TA.AperFunction,ComponentPad*%
%ADD12RoundRect,0.875000X-0.875000X-0.875000X0.875000X-0.875000X0.875000X0.875000X-0.875000X0.875000X0*%
%TD*%
%TA.AperFunction,ComponentPad*%
%ADD13R,1.700000X1.700000*%
%TD*%
%TA.AperFunction,ComponentPad*%
%ADD14O,1.700000X1.700000*%
%TD*%
%TA.AperFunction,ComponentPad*%
%ADD15R,2.600000X2.600000*%
%TD*%
%TA.AperFunction,ComponentPad*%
%ADD16C,2.600000*%
%TD*%
%TA.AperFunction,Conductor*%
%ADD17C,0.250000*%
%TD*%
G04 APERTURE END LIST*
D10*
%TO.P,J1,1*%
%TO.N,Net-(J4-Pin_8)*%
X122000000Y-104000000D03*
D11*
%TO.P,J1,2*%
%TO.N,Net-(J3-Pin_14)*%
X116000000Y-104000000D03*
D12*
%TO.P,J1,3*%
%TO.N,N/C*%
X119000000Y-108700000D03*
%TD*%
D13*
%TO.P,J3,D12*%
%TO.N,N/C*%
X129000000Y-73600000D03*
D14*
%TO.P,J3,15*%
X129000000Y-109160000D03*
%TO.P,J3,GND,Pin_14*%
%TO.N,Net-(J3-Pin_14)*%
X129000000Y-106620000D03*
%TO.P,J3,13*%
%TO.N,N/C*%
X129000000Y-104080000D03*
%TO.P,J3,11*%
X129000000Y-99000000D03*
%TO.P,J3,10*%
X129000000Y-96460000D03*
%TO.P,J3,9*%
X129000000Y-93920000D03*
%TO.P,J3,8*%
X129000000Y-91380000D03*
%TO.P,J3,7*%
X129000000Y-88840000D03*
%TO.P,J3,6*%
X129000000Y-86300000D03*
%TO.P,J3,5V,Pin_12*%
%TO.N,Net-(J3-Pin_12)*%
X129000000Y-101540000D03*
%TO.P,J3,5*%
%TO.N,N/C*%
X129000000Y-83760000D03*
%TO.P,J3,4*%
X129000000Y-81220000D03*
%TO.P,J3,3*%
X129000000Y-78680000D03*
%TO.P,J3,2*%
X129000000Y-76140000D03*
%TD*%
%TO.P,J6,UART,Pin_5*%
%TO.N,Net-(J5-Pin_15)*%
X141700000Y-128080000D03*
%TO.P,J6,Step,Pin_2*%
%TO.N,Net-(J5-Pin_3)*%
X141700000Y-120460000D03*
%TO.P,J6,EN,Pin_8*%
%TO.N,Net-(J5-Pin_12)*%
X141700000Y-135700000D03*
D13*
%TO.P,J6,Dir,1*%
%TO.N,unconnected-(J6-1-PadDir)*%
X141700000Y-117920000D03*
D14*
%TO.P,J6,7*%
%TO.N,N/C*%
X141700000Y-133160000D03*
%TO.P,J6,6*%
X141700000Y-130620000D03*
%TO.P,J6,4*%
X141700000Y-125540000D03*
%TO.P,J6,3*%
X141700000Y-123000000D03*
%TD*%
D13*
%TO.P,J5,1*%
%TO.N,N/C*%
X144239900Y-73660000D03*
D14*
%TO.P,J5,2*%
X144239900Y-76200000D03*
%TO.P,J5,4*%
X144239900Y-81280000D03*
%TO.P,J5,5*%
X144239900Y-83820000D03*
%TO.P,J5,6*%
X144239900Y-86360000D03*
%TO.P,J5,7*%
X144239900Y-88900000D03*
%TO.P,J5,8*%
X144239900Y-91440000D03*
%TO.P,J5,9*%
X144239900Y-93980000D03*
%TO.P,J5,10*%
X144239900Y-96520000D03*
%TO.P,J5,11*%
X144239900Y-99060000D03*
%TO.P,J5,13*%
X144239900Y-104140000D03*
%TO.P,J5,14*%
X144239900Y-106680000D03*
%TO.P,J5,D10,Pin_3*%
%TO.N,Net-(J5-Pin_3)*%
X144239900Y-78740000D03*
%TO.P,J5,GND,Pin_12*%
%TO.N,Net-(J5-Pin_12)*%
X144239900Y-101600000D03*
%TO.P,J5,TX1,Pin_15*%
%TO.N,Net-(J5-Pin_15)*%
X144239900Y-109220000D03*
%TD*%
D15*
%TO.P,J2,1,Pin_1*%
%TO.N,Net-(J2-Pin_1)*%
X115695000Y-119500000D03*
D16*
%TO.P,J2,2,Pin_2*%
%TO.N,Net-(J2-Pin_2)*%
X115695000Y-124500000D03*
%TO.P,J2,3,Pin_3*%
%TO.N,Net-(J2-Pin_3)*%
X115695000Y-129500000D03*
%TO.P,J2,4,Pin_4*%
%TO.N,Net-(J2-Pin_4)*%
X115695000Y-134500000D03*
%TD*%
D14*
%TO.P,J4,VM,Pin_8*%
%TO.N,Net-(J4-Pin_8)*%
X129000000Y-135700000D03*
%TO.P,J4,VIO,Pin_2*%
%TO.N,Net-(J3-Pin_12)*%
X129000000Y-120460000D03*
%TO.P,J4,M2B,Pin_6*%
%TO.N,Net-(J2-Pin_4)*%
X129000000Y-130620000D03*
%TO.P,J4,M2A,Pin_5*%
%TO.N,Net-(J2-Pin_3)*%
X129000000Y-128080000D03*
%TO.P,J4,M1B,Pin_3*%
%TO.N,Net-(J2-Pin_1)*%
X129000000Y-123000000D03*
%TO.P,J4,M1A,Pin_4*%
%TO.N,Net-(J2-Pin_2)*%
X129000000Y-125540000D03*
%TO.P,J4,GND,Pin_1*%
%TO.N,Net-(J3-Pin_14)*%
X129000000Y-133160000D03*
D13*
X129000000Y-117920000D03*
%TD*%
D17*
%TO.N,Net-(J3-Pin_14)*%
X129000000Y-117920000D02*
X130175000Y-119095000D01*
X130175000Y-119095000D02*
X130175000Y-131985000D01*
X130175000Y-131985000D02*
X129000000Y-133160000D01*
%TD*%
M02*
