%TF.GenerationSoftware,KiCad,Pcbnew,7.0.7*%
%TF.CreationDate,2025-02-21T15:48:44-06:00*%
%TF.ProjectId,tmc,746d632e-6b69-4636-9164-5f7063625858,rev?*%
%TF.SameCoordinates,Original*%
%TF.FileFunction,Legend,Top*%
%TF.FilePolarity,Positive*%
%FSLAX46Y46*%
G04 Gerber Fmt 4.6, Leading zero omitted, Abs format (unit mm)*
G04 Created by KiCad (PCBNEW 7.0.7) date 2025-02-21 15:48:44*
%MOMM*%
%LPD*%
G01*
G04 APERTURE LIST*
%ADD10C,0.150000*%
%ADD11C,0.120000*%
G04 APERTURE END LIST*
D10*
X117593333Y-96684819D02*
X117260000Y-96208628D01*
X117021905Y-96684819D02*
X117021905Y-95684819D01*
X117021905Y-95684819D02*
X117402857Y-95684819D01*
X117402857Y-95684819D02*
X117498095Y-95732438D01*
X117498095Y-95732438D02*
X117545714Y-95780057D01*
X117545714Y-95780057D02*
X117593333Y-95875295D01*
X117593333Y-95875295D02*
X117593333Y-96018152D01*
X117593333Y-96018152D02*
X117545714Y-96113390D01*
X117545714Y-96113390D02*
X117498095Y-96161009D01*
X117498095Y-96161009D02*
X117402857Y-96208628D01*
X117402857Y-96208628D02*
X117021905Y-96208628D01*
X117974286Y-95780057D02*
X118021905Y-95732438D01*
X118021905Y-95732438D02*
X118117143Y-95684819D01*
X118117143Y-95684819D02*
X118355238Y-95684819D01*
X118355238Y-95684819D02*
X118450476Y-95732438D01*
X118450476Y-95732438D02*
X118498095Y-95780057D01*
X118498095Y-95780057D02*
X118545714Y-95875295D01*
X118545714Y-95875295D02*
X118545714Y-95970533D01*
X118545714Y-95970533D02*
X118498095Y-96113390D01*
X118498095Y-96113390D02*
X117926667Y-96684819D01*
X117926667Y-96684819D02*
X118545714Y-96684819D01*
X118133333Y-91834819D02*
X117800000Y-91358628D01*
X117561905Y-91834819D02*
X117561905Y-90834819D01*
X117561905Y-90834819D02*
X117942857Y-90834819D01*
X117942857Y-90834819D02*
X118038095Y-90882438D01*
X118038095Y-90882438D02*
X118085714Y-90930057D01*
X118085714Y-90930057D02*
X118133333Y-91025295D01*
X118133333Y-91025295D02*
X118133333Y-91168152D01*
X118133333Y-91168152D02*
X118085714Y-91263390D01*
X118085714Y-91263390D02*
X118038095Y-91311009D01*
X118038095Y-91311009D02*
X117942857Y-91358628D01*
X117942857Y-91358628D02*
X117561905Y-91358628D01*
X119085714Y-91834819D02*
X118514286Y-91834819D01*
X118800000Y-91834819D02*
X118800000Y-90834819D01*
X118800000Y-90834819D02*
X118704762Y-90977676D01*
X118704762Y-90977676D02*
X118609524Y-91072914D01*
X118609524Y-91072914D02*
X118514286Y-91120533D01*
X128666666Y-70284819D02*
X128666666Y-70999104D01*
X128666666Y-70999104D02*
X128619047Y-71141961D01*
X128619047Y-71141961D02*
X128523809Y-71237200D01*
X128523809Y-71237200D02*
X128380952Y-71284819D01*
X128380952Y-71284819D02*
X128285714Y-71284819D01*
X129047619Y-70284819D02*
X129666666Y-70284819D01*
X129666666Y-70284819D02*
X129333333Y-70665771D01*
X129333333Y-70665771D02*
X129476190Y-70665771D01*
X129476190Y-70665771D02*
X129571428Y-70713390D01*
X129571428Y-70713390D02*
X129619047Y-70761009D01*
X129619047Y-70761009D02*
X129666666Y-70856247D01*
X129666666Y-70856247D02*
X129666666Y-71094342D01*
X129666666Y-71094342D02*
X129619047Y-71189580D01*
X129619047Y-71189580D02*
X129571428Y-71237200D01*
X129571428Y-71237200D02*
X129476190Y-71284819D01*
X129476190Y-71284819D02*
X129190476Y-71284819D01*
X129190476Y-71284819D02*
X129095238Y-71237200D01*
X129095238Y-71237200D02*
X129047619Y-71189580D01*
X141366666Y-114604819D02*
X141366666Y-115319104D01*
X141366666Y-115319104D02*
X141319047Y-115461961D01*
X141319047Y-115461961D02*
X141223809Y-115557200D01*
X141223809Y-115557200D02*
X141080952Y-115604819D01*
X141080952Y-115604819D02*
X140985714Y-115604819D01*
X142271428Y-114604819D02*
X142080952Y-114604819D01*
X142080952Y-114604819D02*
X141985714Y-114652438D01*
X141985714Y-114652438D02*
X141938095Y-114700057D01*
X141938095Y-114700057D02*
X141842857Y-114842914D01*
X141842857Y-114842914D02*
X141795238Y-115033390D01*
X141795238Y-115033390D02*
X141795238Y-115414342D01*
X141795238Y-115414342D02*
X141842857Y-115509580D01*
X141842857Y-115509580D02*
X141890476Y-115557200D01*
X141890476Y-115557200D02*
X141985714Y-115604819D01*
X141985714Y-115604819D02*
X142176190Y-115604819D01*
X142176190Y-115604819D02*
X142271428Y-115557200D01*
X142271428Y-115557200D02*
X142319047Y-115509580D01*
X142319047Y-115509580D02*
X142366666Y-115414342D01*
X142366666Y-115414342D02*
X142366666Y-115176247D01*
X142366666Y-115176247D02*
X142319047Y-115081009D01*
X142319047Y-115081009D02*
X142271428Y-115033390D01*
X142271428Y-115033390D02*
X142176190Y-114985771D01*
X142176190Y-114985771D02*
X141985714Y-114985771D01*
X141985714Y-114985771D02*
X141890476Y-115033390D01*
X141890476Y-115033390D02*
X141842857Y-115081009D01*
X141842857Y-115081009D02*
X141795238Y-115176247D01*
X121014819Y-81533333D02*
X121729104Y-81533333D01*
X121729104Y-81533333D02*
X121871961Y-81580952D01*
X121871961Y-81580952D02*
X121967200Y-81676190D01*
X121967200Y-81676190D02*
X122014819Y-81819047D01*
X122014819Y-81819047D02*
X122014819Y-81914285D01*
X121014819Y-81152380D02*
X121014819Y-80485714D01*
X121014819Y-80485714D02*
X122014819Y-80914285D01*
X113216666Y-113204819D02*
X113216666Y-113919104D01*
X113216666Y-113919104D02*
X113169047Y-114061961D01*
X113169047Y-114061961D02*
X113073809Y-114157200D01*
X113073809Y-114157200D02*
X112930952Y-114204819D01*
X112930952Y-114204819D02*
X112835714Y-114204819D01*
X114216666Y-114204819D02*
X113645238Y-114204819D01*
X113930952Y-114204819D02*
X113930952Y-113204819D01*
X113930952Y-113204819D02*
X113835714Y-113347676D01*
X113835714Y-113347676D02*
X113740476Y-113442914D01*
X113740476Y-113442914D02*
X113645238Y-113490533D01*
X143906566Y-70344819D02*
X143906566Y-71059104D01*
X143906566Y-71059104D02*
X143858947Y-71201961D01*
X143858947Y-71201961D02*
X143763709Y-71297200D01*
X143763709Y-71297200D02*
X143620852Y-71344819D01*
X143620852Y-71344819D02*
X143525614Y-71344819D01*
X144858947Y-70344819D02*
X144382757Y-70344819D01*
X144382757Y-70344819D02*
X144335138Y-70821009D01*
X144335138Y-70821009D02*
X144382757Y-70773390D01*
X144382757Y-70773390D02*
X144477995Y-70725771D01*
X144477995Y-70725771D02*
X144716090Y-70725771D01*
X144716090Y-70725771D02*
X144811328Y-70773390D01*
X144811328Y-70773390D02*
X144858947Y-70821009D01*
X144858947Y-70821009D02*
X144906566Y-70916247D01*
X144906566Y-70916247D02*
X144906566Y-71154342D01*
X144906566Y-71154342D02*
X144858947Y-71249580D01*
X144858947Y-71249580D02*
X144811328Y-71297200D01*
X144811328Y-71297200D02*
X144716090Y-71344819D01*
X144716090Y-71344819D02*
X144477995Y-71344819D01*
X144477995Y-71344819D02*
X144382757Y-71297200D01*
X144382757Y-71297200D02*
X144335138Y-71249580D01*
X121409819Y-127333333D02*
X122124104Y-127333333D01*
X122124104Y-127333333D02*
X122266961Y-127380952D01*
X122266961Y-127380952D02*
X122362200Y-127476190D01*
X122362200Y-127476190D02*
X122409819Y-127619047D01*
X122409819Y-127619047D02*
X122409819Y-127714285D01*
X121505057Y-126904761D02*
X121457438Y-126857142D01*
X121457438Y-126857142D02*
X121409819Y-126761904D01*
X121409819Y-126761904D02*
X121409819Y-126523809D01*
X121409819Y-126523809D02*
X121457438Y-126428571D01*
X121457438Y-126428571D02*
X121505057Y-126380952D01*
X121505057Y-126380952D02*
X121600295Y-126333333D01*
X121600295Y-126333333D02*
X121695533Y-126333333D01*
X121695533Y-126333333D02*
X121838390Y-126380952D01*
X121838390Y-126380952D02*
X122409819Y-126952380D01*
X122409819Y-126952380D02*
X122409819Y-126333333D01*
X128666666Y-114604819D02*
X128666666Y-115319104D01*
X128666666Y-115319104D02*
X128619047Y-115461961D01*
X128619047Y-115461961D02*
X128523809Y-115557200D01*
X128523809Y-115557200D02*
X128380952Y-115604819D01*
X128380952Y-115604819D02*
X128285714Y-115604819D01*
X129571428Y-114938152D02*
X129571428Y-115604819D01*
X129333333Y-114557200D02*
X129095238Y-115271485D01*
X129095238Y-115271485D02*
X129714285Y-115271485D01*
D11*
%TO.C,R2*%
X121800000Y-98600000D02*
X121030000Y-98600000D01*
X113720000Y-98600000D02*
X114490000Y-98600000D01*
X114490000Y-97230000D02*
X114490000Y-99970000D01*
X121030000Y-99970000D02*
X121030000Y-97230000D01*
X114490000Y-99970000D02*
X121030000Y-99970000D01*
X121030000Y-97230000D02*
X114490000Y-97230000D01*
%TO.C,R1*%
X121570000Y-92380000D02*
X115030000Y-92380000D01*
X115030000Y-95120000D02*
X121570000Y-95120000D01*
X121570000Y-95120000D02*
X121570000Y-92380000D01*
X115030000Y-92380000D02*
X115030000Y-95120000D01*
X114260000Y-93750000D02*
X115030000Y-93750000D01*
X122340000Y-93750000D02*
X121570000Y-93750000D01*
%TO.C,J3*%
X127670000Y-74870000D02*
X127670000Y-110490000D01*
X127670000Y-74870000D02*
X130330000Y-74870000D01*
X127670000Y-110490000D02*
X130330000Y-110490000D01*
X129000000Y-72270000D02*
X130330000Y-72270000D01*
X130330000Y-72270000D02*
X130330000Y-73600000D01*
X130330000Y-74870000D02*
X130330000Y-110490000D01*
%TO.C,J6*%
X140370000Y-119190000D02*
X140370000Y-137030000D01*
X140370000Y-119190000D02*
X143030000Y-119190000D01*
X140370000Y-137030000D02*
X143030000Y-137030000D01*
X141700000Y-116590000D02*
X143030000Y-116590000D01*
X143030000Y-116590000D02*
X143030000Y-117920000D01*
X143030000Y-119190000D02*
X143030000Y-137030000D01*
%TO.C,J7*%
X111140000Y-73280000D02*
X110400000Y-73280000D01*
X110400000Y-73280000D02*
X110400000Y-73780000D01*
X120561000Y-73520000D02*
X110640000Y-73520000D01*
X120561000Y-73520000D02*
X120561000Y-88880000D01*
X117601000Y-73520000D02*
X117601000Y-88880000D01*
X112700000Y-73520000D02*
X112700000Y-88880000D01*
X111200000Y-73520000D02*
X111200000Y-88880000D01*
X110640000Y-73520000D02*
X110640000Y-88880000D01*
X114277000Y-79973000D02*
X114231000Y-79926000D01*
X114061000Y-80166000D02*
X114026000Y-80131000D01*
X116575000Y-82270000D02*
X116539000Y-82235000D01*
X116369000Y-82475000D02*
X116323000Y-82428000D01*
X114277000Y-85053000D02*
X114231000Y-85006000D01*
X114061000Y-85246000D02*
X114026000Y-85211000D01*
X116575000Y-87350000D02*
X116539000Y-87315000D01*
X116369000Y-87555000D02*
X116323000Y-87508000D01*
X120561000Y-88880000D02*
X110640000Y-88880000D01*
X115983999Y-74585001D02*
G75*
G03*
X114616958Y-74584574I-684000J-1534992D01*
G01*
X116834999Y-76803999D02*
G75*
G03*
X116835426Y-75436958I-1534992J684000D01*
G01*
X113765001Y-75436000D02*
G75*
G03*
X113619748Y-76148805I1535000J-683999D01*
G01*
X113620001Y-76120000D02*
G75*
G03*
X113765245Y-76803318I1679999J0D01*
G01*
X114616000Y-77655000D02*
G75*
G03*
X115983042Y-77655426I684000J1535000D01*
G01*
X116980000Y-81200000D02*
G75*
G03*
X116980000Y-81200000I-1680000J0D01*
G01*
X116980000Y-86280000D02*
G75*
G03*
X116980000Y-86280000I-1680000J0D01*
G01*
%TO.C,J1*%
X108200000Y-103400000D02*
X122900000Y-103400000D01*
X108200000Y-112600000D02*
X108200000Y-103400000D01*
X117000000Y-112600000D02*
X108200000Y-112600000D01*
X122050000Y-103200000D02*
X123100000Y-103200000D01*
X122900000Y-103400000D02*
X122900000Y-106000000D01*
X122900000Y-109900000D02*
X122900000Y-112600000D01*
X122900000Y-112600000D02*
X121000000Y-112600000D01*
X123100000Y-104250000D02*
X123100000Y-103200000D01*
%TO.C,J5*%
X142909900Y-74930000D02*
X142909900Y-110550000D01*
X142909900Y-74930000D02*
X145569900Y-74930000D01*
X142909900Y-110550000D02*
X145569900Y-110550000D01*
X144239900Y-72330000D02*
X145569900Y-72330000D01*
X145569900Y-72330000D02*
X145569900Y-73660000D01*
X145569900Y-74930000D02*
X145569900Y-110550000D01*
%TO.C,J2*%
X111535000Y-116700000D02*
X110795000Y-116700000D01*
X110795000Y-116700000D02*
X110795000Y-117200000D01*
X120956000Y-116940000D02*
X111035000Y-116940000D01*
X120956000Y-116940000D02*
X120956000Y-137061000D01*
X117996000Y-116940000D02*
X117996000Y-137061000D01*
X113095000Y-116940000D02*
X113095000Y-137061000D01*
X111595000Y-116940000D02*
X111595000Y-137061000D01*
X111035000Y-116940000D02*
X111035000Y-137061000D01*
X114672000Y-123273000D02*
X114626000Y-123226000D01*
X114456000Y-123466000D02*
X114421000Y-123431000D01*
X116970000Y-125570000D02*
X116934000Y-125535000D01*
X116764000Y-125775000D02*
X116718000Y-125728000D01*
X114672000Y-128273000D02*
X114626000Y-128226000D01*
X114456000Y-128466000D02*
X114421000Y-128431000D01*
X116970000Y-130570000D02*
X116934000Y-130535000D01*
X116764000Y-130775000D02*
X116718000Y-130728000D01*
X114672000Y-133273000D02*
X114626000Y-133226000D01*
X114456000Y-133466000D02*
X114421000Y-133431000D01*
X116970000Y-135570000D02*
X116934000Y-135535000D01*
X116764000Y-135775000D02*
X116718000Y-135728000D01*
X120956000Y-137061000D02*
X111035000Y-137061000D01*
X116378999Y-117965001D02*
G75*
G03*
X115011958Y-117964574I-684000J-1534992D01*
G01*
X117229999Y-120183999D02*
G75*
G03*
X117230426Y-118816958I-1534992J684000D01*
G01*
X114160001Y-118816000D02*
G75*
G03*
X114014748Y-119528805I1535000J-683999D01*
G01*
X114015001Y-119500000D02*
G75*
G03*
X114160245Y-120183318I1679999J0D01*
G01*
X115011000Y-121035000D02*
G75*
G03*
X116378042Y-121035426I684000J1535000D01*
G01*
X117375000Y-124500000D02*
G75*
G03*
X117375000Y-124500000I-1680000J0D01*
G01*
X117375000Y-129500000D02*
G75*
G03*
X117375000Y-129500000I-1680000J0D01*
G01*
X117375000Y-134500000D02*
G75*
G03*
X117375000Y-134500000I-1680000J0D01*
G01*
%TO.C,J4*%
X127670000Y-119190000D02*
X127670000Y-137030000D01*
X127670000Y-119190000D02*
X130330000Y-119190000D01*
X127670000Y-137030000D02*
X130330000Y-137030000D01*
X129000000Y-116590000D02*
X130330000Y-116590000D01*
X130330000Y-116590000D02*
X130330000Y-117920000D01*
X130330000Y-119190000D02*
X130330000Y-137030000D01*
%TD*%
M02*
