%TF.GenerationSoftware,KiCad,Pcbnew,7.0.7*%
%TF.CreationDate,2025-02-21T15:48:44-06:00*%
%TF.ProjectId,tmc,746d632e-6b69-4636-9164-5f7063625858,rev?*%
%TF.SameCoordinates,Original*%
%TF.FileFunction,Soldermask,Bot*%
%TF.FilePolarity,Negative*%
%FSLAX46Y46*%
G04 Gerber Fmt 4.6, Leading zero omitted, Abs format (unit mm)*
G04 Created by KiCad (PCBNEW 7.0.7) date 2025-02-21 15:48:44*
%MOMM*%
%LPD*%
G01*
G04 APERTURE LIST*
G04 Aperture macros list*
%AMRoundRect*
0 Rectangle with rounded corners*
0 $1 Rounding radius*
0 $2 $3 $4 $5 $6 $7 $8 $9 X,Y pos of 4 corners*
0 Add a 4 corners polygon primitive as box body*
4,1,4,$2,$3,$4,$5,$6,$7,$8,$9,$2,$3,0*
0 Add four circle primitives for the rounded corners*
1,1,$1+$1,$2,$3*
1,1,$1+$1,$4,$5*
1,1,$1+$1,$6,$7*
1,1,$1+$1,$8,$9*
0 Add four rect primitives between the rounded corners*
20,1,$1+$1,$2,$3,$4,$5,0*
20,1,$1+$1,$4,$5,$6,$7,0*
20,1,$1+$1,$6,$7,$8,$9,0*
20,1,$1+$1,$8,$9,$2,$3,0*%
G04 Aperture macros list end*
%ADD10C,1.600000*%
%ADD11O,1.600000X1.600000*%
%ADD12O,1.700000X1.700000*%
%ADD13R,1.700000X1.700000*%
%ADD14R,2.600000X2.600000*%
%ADD15C,2.600000*%
%ADD16R,3.500000X3.500000*%
%ADD17RoundRect,0.750000X-0.750000X-1.000000X0.750000X-1.000000X0.750000X1.000000X-0.750000X1.000000X0*%
%ADD18RoundRect,0.875000X-0.875000X-0.875000X0.875000X-0.875000X0.875000X0.875000X-0.875000X0.875000X0*%
G04 APERTURE END LIST*
D10*
%TO.C,R2*%
X112680000Y-98600000D03*
D11*
X122840000Y-98600000D03*
%TD*%
%TO.C,R1*%
X123380000Y-93750000D03*
D10*
X113220000Y-93750000D03*
%TD*%
D12*
%TO.C,J3*%
X129000000Y-76140000D03*
X129000000Y-78680000D03*
X129000000Y-101540000D03*
X129000000Y-86300000D03*
X129000000Y-88840000D03*
X129000000Y-91380000D03*
X129000000Y-93920000D03*
X129000000Y-96460000D03*
X129000000Y-99000000D03*
X129000000Y-104080000D03*
X129000000Y-109160000D03*
X129000000Y-81220000D03*
X129000000Y-83760000D03*
D13*
X129000000Y-73600000D03*
D12*
X129000000Y-106620000D03*
%TD*%
%TO.C,J6*%
X141700000Y-130620000D03*
X141700000Y-123000000D03*
D13*
X141700000Y-117920000D03*
D12*
X141700000Y-135700000D03*
X141700000Y-133160000D03*
X141700000Y-125540000D03*
X141700000Y-120460000D03*
X141700000Y-128080000D03*
%TD*%
D14*
%TO.C,J7*%
X115300000Y-76120000D03*
D15*
X115300000Y-81200000D03*
X115300000Y-86280000D03*
%TD*%
D16*
%TO.C,J1*%
X122000000Y-108000000D03*
D17*
X116000000Y-108000000D03*
D18*
X119000000Y-112700000D03*
%TD*%
D13*
%TO.C,J5*%
X144239900Y-73660000D03*
D12*
X144239900Y-76200000D03*
X144239900Y-104140000D03*
X144239900Y-106680000D03*
X144239900Y-99060000D03*
X144239900Y-96520000D03*
X144239900Y-93980000D03*
X144239900Y-91440000D03*
X144239900Y-88900000D03*
X144239900Y-86360000D03*
X144239900Y-83820000D03*
X144239900Y-81280000D03*
X144239900Y-78740000D03*
X144239900Y-101600000D03*
X144239900Y-109220000D03*
%TD*%
D14*
%TO.C,J2*%
X115695000Y-119500000D03*
D15*
X115695000Y-124500000D03*
X115695000Y-129500000D03*
X115695000Y-134500000D03*
%TD*%
D13*
%TO.C,J4*%
X129000000Y-117920000D03*
D12*
X129000000Y-133160000D03*
X129000000Y-125540000D03*
X129000000Y-123000000D03*
X129000000Y-128080000D03*
X129000000Y-130620000D03*
X129000000Y-120460000D03*
X129000000Y-135700000D03*
%TD*%
M02*
