%TF.GenerationSoftware,KiCad,Pcbnew,7.0.7*%
%TF.CreationDate,2025-02-21T15:48:44-06:00*%
%TF.ProjectId,tmc,746d632e-6b69-4636-9164-5f7063625858,rev?*%
%TF.SameCoordinates,Original*%
%TF.FileFunction,Copper,L1,Top*%
%TF.FilePolarity,Positive*%
%FSLAX46Y46*%
G04 Gerber Fmt 4.6, Leading zero omitted, Abs format (unit mm)*
G04 Created by KiCad (PCBNEW 7.0.7) date 2025-02-21 15:48:44*
%MOMM*%
%LPD*%
G01*
G04 APERTURE LIST*
G04 Aperture macros list*
%AMRoundRect*
0 Rectangle with rounded corners*
0 $1 Rounding radius*
0 $2 $3 $4 $5 $6 $7 $8 $9 X,Y pos of 4 corners*
0 Add a 4 corners polygon primitive as box body*
4,1,4,$2,$3,$4,$5,$6,$7,$8,$9,$2,$3,0*
0 Add four circle primitives for the rounded corners*
1,1,$1+$1,$2,$3*
1,1,$1+$1,$4,$5*
1,1,$1+$1,$6,$7*
1,1,$1+$1,$8,$9*
0 Add four rect primitives between the rounded corners*
20,1,$1+$1,$2,$3,$4,$5,0*
20,1,$1+$1,$4,$5,$6,$7,0*
20,1,$1+$1,$6,$7,$8,$9,0*
20,1,$1+$1,$8,$9,$2,$3,0*%
G04 Aperture macros list end*
%ADD10C,0.300000*%
%TA.AperFunction,NonConductor*%
%ADD11C,0.300000*%
%TD*%
%TA.AperFunction,NonConductor*%
%ADD12C,0.200000*%
%TD*%
%TA.AperFunction,ComponentPad*%
%ADD13C,1.600000*%
%TD*%
%TA.AperFunction,ComponentPad*%
%ADD14O,1.600000X1.600000*%
%TD*%
%TA.AperFunction,ComponentPad*%
%ADD15O,1.700000X1.700000*%
%TD*%
%TA.AperFunction,ComponentPad*%
%ADD16R,1.700000X1.700000*%
%TD*%
%TA.AperFunction,ComponentPad*%
%ADD17R,2.600000X2.600000*%
%TD*%
%TA.AperFunction,ComponentPad*%
%ADD18C,2.600000*%
%TD*%
%TA.AperFunction,ComponentPad*%
%ADD19R,3.500000X3.500000*%
%TD*%
%TA.AperFunction,ComponentPad*%
%ADD20RoundRect,0.750000X-0.750000X-1.000000X0.750000X-1.000000X0.750000X1.000000X-0.750000X1.000000X0*%
%TD*%
%TA.AperFunction,ComponentPad*%
%ADD21RoundRect,0.875000X-0.875000X-0.875000X0.875000X-0.875000X0.875000X0.875000X-0.875000X0.875000X0*%
%TD*%
%TA.AperFunction,Conductor*%
%ADD22C,0.250000*%
%TD*%
G04 APERTURE END LIST*
D10*
D11*
X129278573Y-147818037D02*
X128421430Y-147818037D01*
X128850001Y-147818037D02*
X128850001Y-146318037D01*
X128850001Y-146318037D02*
X128707144Y-146532323D01*
X128707144Y-146532323D02*
X128564287Y-146675180D01*
X128564287Y-146675180D02*
X128421430Y-146746609D01*
X129850001Y-146460894D02*
X129921429Y-146389466D01*
X129921429Y-146389466D02*
X130064287Y-146318037D01*
X130064287Y-146318037D02*
X130421429Y-146318037D01*
X130421429Y-146318037D02*
X130564287Y-146389466D01*
X130564287Y-146389466D02*
X130635715Y-146460894D01*
X130635715Y-146460894D02*
X130707144Y-146603751D01*
X130707144Y-146603751D02*
X130707144Y-146746609D01*
X130707144Y-146746609D02*
X130635715Y-146960894D01*
X130635715Y-146960894D02*
X129778572Y-147818037D01*
X129778572Y-147818037D02*
X130707144Y-147818037D01*
X131350000Y-147675180D02*
X131421429Y-147746609D01*
X131421429Y-147746609D02*
X131350000Y-147818037D01*
X131350000Y-147818037D02*
X131278572Y-147746609D01*
X131278572Y-147746609D02*
X131350000Y-147675180D01*
X131350000Y-147675180D02*
X131350000Y-147818037D01*
X131921429Y-146318037D02*
X132921429Y-146318037D01*
X132921429Y-146318037D02*
X132278572Y-147818037D01*
X133778572Y-146318037D02*
X133921429Y-146318037D01*
X133921429Y-146318037D02*
X134064286Y-146389466D01*
X134064286Y-146389466D02*
X134135715Y-146460894D01*
X134135715Y-146460894D02*
X134207143Y-146603751D01*
X134207143Y-146603751D02*
X134278572Y-146889466D01*
X134278572Y-146889466D02*
X134278572Y-147246609D01*
X134278572Y-147246609D02*
X134207143Y-147532323D01*
X134207143Y-147532323D02*
X134135715Y-147675180D01*
X134135715Y-147675180D02*
X134064286Y-147746609D01*
X134064286Y-147746609D02*
X133921429Y-147818037D01*
X133921429Y-147818037D02*
X133778572Y-147818037D01*
X133778572Y-147818037D02*
X133635715Y-147746609D01*
X133635715Y-147746609D02*
X133564286Y-147675180D01*
X133564286Y-147675180D02*
X133492857Y-147532323D01*
X133492857Y-147532323D02*
X133421429Y-147246609D01*
X133421429Y-147246609D02*
X133421429Y-146889466D01*
X133421429Y-146889466D02*
X133492857Y-146603751D01*
X133492857Y-146603751D02*
X133564286Y-146460894D01*
X133564286Y-146460894D02*
X133635715Y-146389466D01*
X133635715Y-146389466D02*
X133778572Y-146318037D01*
X135207143Y-146318037D02*
X135350000Y-146318037D01*
X135350000Y-146318037D02*
X135492857Y-146389466D01*
X135492857Y-146389466D02*
X135564286Y-146460894D01*
X135564286Y-146460894D02*
X135635714Y-146603751D01*
X135635714Y-146603751D02*
X135707143Y-146889466D01*
X135707143Y-146889466D02*
X135707143Y-147246609D01*
X135707143Y-147246609D02*
X135635714Y-147532323D01*
X135635714Y-147532323D02*
X135564286Y-147675180D01*
X135564286Y-147675180D02*
X135492857Y-147746609D01*
X135492857Y-147746609D02*
X135350000Y-147818037D01*
X135350000Y-147818037D02*
X135207143Y-147818037D01*
X135207143Y-147818037D02*
X135064286Y-147746609D01*
X135064286Y-147746609D02*
X134992857Y-147675180D01*
X134992857Y-147675180D02*
X134921428Y-147532323D01*
X134921428Y-147532323D02*
X134850000Y-147246609D01*
X134850000Y-147246609D02*
X134850000Y-146889466D01*
X134850000Y-146889466D02*
X134921428Y-146603751D01*
X134921428Y-146603751D02*
X134992857Y-146460894D01*
X134992857Y-146460894D02*
X135064286Y-146389466D01*
X135064286Y-146389466D02*
X135207143Y-146318037D01*
X136635714Y-146318037D02*
X136778571Y-146318037D01*
X136778571Y-146318037D02*
X136921428Y-146389466D01*
X136921428Y-146389466D02*
X136992857Y-146460894D01*
X136992857Y-146460894D02*
X137064285Y-146603751D01*
X137064285Y-146603751D02*
X137135714Y-146889466D01*
X137135714Y-146889466D02*
X137135714Y-147246609D01*
X137135714Y-147246609D02*
X137064285Y-147532323D01*
X137064285Y-147532323D02*
X136992857Y-147675180D01*
X136992857Y-147675180D02*
X136921428Y-147746609D01*
X136921428Y-147746609D02*
X136778571Y-147818037D01*
X136778571Y-147818037D02*
X136635714Y-147818037D01*
X136635714Y-147818037D02*
X136492857Y-147746609D01*
X136492857Y-147746609D02*
X136421428Y-147675180D01*
X136421428Y-147675180D02*
X136349999Y-147532323D01*
X136349999Y-147532323D02*
X136278571Y-147246609D01*
X136278571Y-147246609D02*
X136278571Y-146889466D01*
X136278571Y-146889466D02*
X136349999Y-146603751D01*
X136349999Y-146603751D02*
X136421428Y-146460894D01*
X136421428Y-146460894D02*
X136492857Y-146389466D01*
X136492857Y-146389466D02*
X136635714Y-146318037D01*
X138921427Y-147818037D02*
X138921427Y-146818037D01*
X138921427Y-146960894D02*
X138992856Y-146889466D01*
X138992856Y-146889466D02*
X139135713Y-146818037D01*
X139135713Y-146818037D02*
X139349999Y-146818037D01*
X139349999Y-146818037D02*
X139492856Y-146889466D01*
X139492856Y-146889466D02*
X139564285Y-147032323D01*
X139564285Y-147032323D02*
X139564285Y-147818037D01*
X139564285Y-147032323D02*
X139635713Y-146889466D01*
X139635713Y-146889466D02*
X139778570Y-146818037D01*
X139778570Y-146818037D02*
X139992856Y-146818037D01*
X139992856Y-146818037D02*
X140135713Y-146889466D01*
X140135713Y-146889466D02*
X140207142Y-147032323D01*
X140207142Y-147032323D02*
X140207142Y-147818037D01*
X140921427Y-147818037D02*
X140921427Y-146818037D01*
X140921427Y-146960894D02*
X140992856Y-146889466D01*
X140992856Y-146889466D02*
X141135713Y-146818037D01*
X141135713Y-146818037D02*
X141349999Y-146818037D01*
X141349999Y-146818037D02*
X141492856Y-146889466D01*
X141492856Y-146889466D02*
X141564285Y-147032323D01*
X141564285Y-147032323D02*
X141564285Y-147818037D01*
X141564285Y-147032323D02*
X141635713Y-146889466D01*
X141635713Y-146889466D02*
X141778570Y-146818037D01*
X141778570Y-146818037D02*
X141992856Y-146818037D01*
X141992856Y-146818037D02*
X142135713Y-146889466D01*
X142135713Y-146889466D02*
X142207142Y-147032323D01*
X142207142Y-147032323D02*
X142207142Y-147818037D01*
D12*
X129000000Y-140200000D02*
X129000000Y-149526129D01*
X141700000Y-140200000D02*
X141700000Y-149526129D01*
X129000000Y-148939709D02*
X141700000Y-148939709D01*
X129000000Y-148939709D02*
X141700000Y-148939709D01*
X129000000Y-148939709D02*
X130126504Y-148353288D01*
X129000000Y-148939709D02*
X130126504Y-149526130D01*
X141700000Y-148939709D02*
X140573496Y-149526130D01*
X141700000Y-148939709D02*
X140573496Y-148353288D01*
D10*
D11*
X130544400Y-62384434D02*
X129687264Y-62381059D01*
X130115832Y-62382746D02*
X130121738Y-60882758D01*
X130121738Y-60882758D02*
X129978038Y-61096480D01*
X129978038Y-61096480D02*
X129834619Y-61238773D01*
X129834619Y-61238773D02*
X129691482Y-61309639D01*
X131907438Y-60889788D02*
X131193157Y-60886976D01*
X131193157Y-60886976D02*
X131118917Y-61600975D01*
X131118917Y-61600975D02*
X131190626Y-61529828D01*
X131190626Y-61529828D02*
X131333764Y-61458963D01*
X131333764Y-61458963D02*
X131690904Y-61460369D01*
X131690904Y-61460369D02*
X131833479Y-61532359D01*
X131833479Y-61532359D02*
X131904625Y-61604068D01*
X131904625Y-61604068D02*
X131975491Y-61747206D01*
X131975491Y-61747206D02*
X131974085Y-62104346D01*
X131974085Y-62104346D02*
X131902094Y-62246921D01*
X131902094Y-62246921D02*
X131830385Y-62318067D01*
X131830385Y-62318067D02*
X131687248Y-62388933D01*
X131687248Y-62388933D02*
X131330108Y-62387527D01*
X131330108Y-62387527D02*
X131187533Y-62315536D01*
X131187533Y-62315536D02*
X131116386Y-62243827D01*
X132616374Y-62249733D02*
X132687521Y-62321442D01*
X132687521Y-62321442D02*
X132615812Y-62392589D01*
X132615812Y-62392589D02*
X132544665Y-62320880D01*
X132544665Y-62320880D02*
X132616374Y-62249733D01*
X132616374Y-62249733D02*
X132615812Y-62392589D01*
X133264007Y-61037987D02*
X133335717Y-60966841D01*
X133335717Y-60966841D02*
X133478854Y-60895975D01*
X133478854Y-60895975D02*
X133835994Y-60897381D01*
X133835994Y-60897381D02*
X133978569Y-60969372D01*
X133978569Y-60969372D02*
X134049715Y-61041081D01*
X134049715Y-61041081D02*
X134120581Y-61184218D01*
X134120581Y-61184218D02*
X134120019Y-61327074D01*
X134120019Y-61327074D02*
X134047747Y-61541077D01*
X134047747Y-61541077D02*
X133187236Y-62394839D01*
X133187236Y-62394839D02*
X134115800Y-62398494D01*
X135405441Y-61403564D02*
X135401504Y-62403556D01*
X135050551Y-60830734D02*
X134689193Y-61900748D01*
X134689193Y-61900748D02*
X135617757Y-61904404D01*
X136478830Y-60907786D02*
X136621686Y-60908348D01*
X136621686Y-60908348D02*
X136764261Y-60980339D01*
X136764261Y-60980339D02*
X136835407Y-61052048D01*
X136835407Y-61052048D02*
X136906273Y-61195185D01*
X136906273Y-61195185D02*
X136976576Y-61481179D01*
X136976576Y-61481179D02*
X136975170Y-61838319D01*
X136975170Y-61838319D02*
X136902617Y-62123750D01*
X136902617Y-62123750D02*
X136830627Y-62266324D01*
X136830627Y-62266324D02*
X136758917Y-62337471D01*
X136758917Y-62337471D02*
X136615780Y-62408337D01*
X136615780Y-62408337D02*
X136472924Y-62407774D01*
X136472924Y-62407774D02*
X136330349Y-62335784D01*
X136330349Y-62335784D02*
X136259203Y-62264075D01*
X136259203Y-62264075D02*
X136188337Y-62120937D01*
X136188337Y-62120937D02*
X136118034Y-61834944D01*
X136118034Y-61834944D02*
X136119440Y-61477804D01*
X136119440Y-61477804D02*
X136191993Y-61192373D01*
X136191993Y-61192373D02*
X136263983Y-61049798D01*
X136263983Y-61049798D02*
X136335692Y-60978652D01*
X136335692Y-60978652D02*
X136478830Y-60907786D01*
X137907390Y-60913410D02*
X138050246Y-60913973D01*
X138050246Y-60913973D02*
X138192820Y-60985963D01*
X138192820Y-60985963D02*
X138263967Y-61057672D01*
X138263967Y-61057672D02*
X138334833Y-61200810D01*
X138334833Y-61200810D02*
X138405136Y-61486803D01*
X138405136Y-61486803D02*
X138403730Y-61843943D01*
X138403730Y-61843943D02*
X138331177Y-62129374D01*
X138331177Y-62129374D02*
X138259187Y-62271949D01*
X138259187Y-62271949D02*
X138187477Y-62343096D01*
X138187477Y-62343096D02*
X138044340Y-62413961D01*
X138044340Y-62413961D02*
X137901484Y-62413399D01*
X137901484Y-62413399D02*
X137758909Y-62341408D01*
X137758909Y-62341408D02*
X137687762Y-62269699D01*
X137687762Y-62269699D02*
X137616897Y-62126562D01*
X137616897Y-62126562D02*
X137546594Y-61840568D01*
X137546594Y-61840568D02*
X137548000Y-61483428D01*
X137548000Y-61483428D02*
X137620553Y-61197998D01*
X137620553Y-61197998D02*
X137692543Y-61055423D01*
X137692543Y-61055423D02*
X137764252Y-60984276D01*
X137764252Y-60984276D02*
X137907390Y-60913410D01*
X140187180Y-62422398D02*
X140191117Y-61422405D01*
X140190555Y-61565261D02*
X140262264Y-61494115D01*
X140262264Y-61494115D02*
X140405401Y-61423249D01*
X140405401Y-61423249D02*
X140619685Y-61424093D01*
X140619685Y-61424093D02*
X140762260Y-61496083D01*
X140762260Y-61496083D02*
X140833126Y-61639220D01*
X140833126Y-61639220D02*
X140830032Y-62424928D01*
X140833126Y-61639220D02*
X140905116Y-61496645D01*
X140905116Y-61496645D02*
X141048253Y-61425780D01*
X141048253Y-61425780D02*
X141262537Y-61426624D01*
X141262537Y-61426624D02*
X141405112Y-61498614D01*
X141405112Y-61498614D02*
X141475978Y-61641751D01*
X141475978Y-61641751D02*
X141472884Y-62427459D01*
X142187165Y-62430272D02*
X142191102Y-61430279D01*
X142190539Y-61573135D02*
X142262248Y-61501989D01*
X142262248Y-61501989D02*
X142405386Y-61431123D01*
X142405386Y-61431123D02*
X142619670Y-61431967D01*
X142619670Y-61431967D02*
X142762245Y-61503957D01*
X142762245Y-61503957D02*
X142833110Y-61647094D01*
X142833110Y-61647094D02*
X142830017Y-62432802D01*
X142833110Y-61647094D02*
X142905101Y-61504519D01*
X142905101Y-61504519D02*
X143048238Y-61433654D01*
X143048238Y-61433654D02*
X143262522Y-61434498D01*
X143262522Y-61434498D02*
X143405097Y-61506488D01*
X143405097Y-61506488D02*
X143475962Y-61649625D01*
X143475962Y-61649625D02*
X143472869Y-62435333D01*
D12*
X128976969Y-67169105D02*
X128993723Y-62913585D01*
X144216869Y-67229105D02*
X144233623Y-62973585D01*
X128991414Y-63500000D02*
X144231314Y-63560000D01*
X128991414Y-63500000D02*
X144231314Y-63560000D01*
X128991414Y-63500000D02*
X130120218Y-62918019D01*
X128991414Y-63500000D02*
X130115600Y-64090851D01*
X144231314Y-63560000D02*
X143102510Y-64141981D01*
X144231314Y-63560000D02*
X143107128Y-62969149D01*
D10*
D11*
X122485716Y-48678328D02*
X122485716Y-49678328D01*
X122128573Y-48106900D02*
X121771430Y-49178328D01*
X121771430Y-49178328D02*
X122700001Y-49178328D01*
X123128572Y-48178328D02*
X124128572Y-48178328D01*
X124128572Y-48178328D02*
X123485715Y-49678328D01*
X124700000Y-49535471D02*
X124771429Y-49606900D01*
X124771429Y-49606900D02*
X124700000Y-49678328D01*
X124700000Y-49678328D02*
X124628572Y-49606900D01*
X124628572Y-49606900D02*
X124700000Y-49535471D01*
X124700000Y-49535471D02*
X124700000Y-49678328D01*
X126057144Y-48678328D02*
X126057144Y-49678328D01*
X125700001Y-48106900D02*
X125342858Y-49178328D01*
X125342858Y-49178328D02*
X126271429Y-49178328D01*
X127128572Y-48178328D02*
X127271429Y-48178328D01*
X127271429Y-48178328D02*
X127414286Y-48249757D01*
X127414286Y-48249757D02*
X127485715Y-48321185D01*
X127485715Y-48321185D02*
X127557143Y-48464042D01*
X127557143Y-48464042D02*
X127628572Y-48749757D01*
X127628572Y-48749757D02*
X127628572Y-49106900D01*
X127628572Y-49106900D02*
X127557143Y-49392614D01*
X127557143Y-49392614D02*
X127485715Y-49535471D01*
X127485715Y-49535471D02*
X127414286Y-49606900D01*
X127414286Y-49606900D02*
X127271429Y-49678328D01*
X127271429Y-49678328D02*
X127128572Y-49678328D01*
X127128572Y-49678328D02*
X126985715Y-49606900D01*
X126985715Y-49606900D02*
X126914286Y-49535471D01*
X126914286Y-49535471D02*
X126842857Y-49392614D01*
X126842857Y-49392614D02*
X126771429Y-49106900D01*
X126771429Y-49106900D02*
X126771429Y-48749757D01*
X126771429Y-48749757D02*
X126842857Y-48464042D01*
X126842857Y-48464042D02*
X126914286Y-48321185D01*
X126914286Y-48321185D02*
X126985715Y-48249757D01*
X126985715Y-48249757D02*
X127128572Y-48178328D01*
X128557143Y-48178328D02*
X128700000Y-48178328D01*
X128700000Y-48178328D02*
X128842857Y-48249757D01*
X128842857Y-48249757D02*
X128914286Y-48321185D01*
X128914286Y-48321185D02*
X128985714Y-48464042D01*
X128985714Y-48464042D02*
X129057143Y-48749757D01*
X129057143Y-48749757D02*
X129057143Y-49106900D01*
X129057143Y-49106900D02*
X128985714Y-49392614D01*
X128985714Y-49392614D02*
X128914286Y-49535471D01*
X128914286Y-49535471D02*
X128842857Y-49606900D01*
X128842857Y-49606900D02*
X128700000Y-49678328D01*
X128700000Y-49678328D02*
X128557143Y-49678328D01*
X128557143Y-49678328D02*
X128414286Y-49606900D01*
X128414286Y-49606900D02*
X128342857Y-49535471D01*
X128342857Y-49535471D02*
X128271428Y-49392614D01*
X128271428Y-49392614D02*
X128200000Y-49106900D01*
X128200000Y-49106900D02*
X128200000Y-48749757D01*
X128200000Y-48749757D02*
X128271428Y-48464042D01*
X128271428Y-48464042D02*
X128342857Y-48321185D01*
X128342857Y-48321185D02*
X128414286Y-48249757D01*
X128414286Y-48249757D02*
X128557143Y-48178328D01*
X129985714Y-48178328D02*
X130128571Y-48178328D01*
X130128571Y-48178328D02*
X130271428Y-48249757D01*
X130271428Y-48249757D02*
X130342857Y-48321185D01*
X130342857Y-48321185D02*
X130414285Y-48464042D01*
X130414285Y-48464042D02*
X130485714Y-48749757D01*
X130485714Y-48749757D02*
X130485714Y-49106900D01*
X130485714Y-49106900D02*
X130414285Y-49392614D01*
X130414285Y-49392614D02*
X130342857Y-49535471D01*
X130342857Y-49535471D02*
X130271428Y-49606900D01*
X130271428Y-49606900D02*
X130128571Y-49678328D01*
X130128571Y-49678328D02*
X129985714Y-49678328D01*
X129985714Y-49678328D02*
X129842857Y-49606900D01*
X129842857Y-49606900D02*
X129771428Y-49535471D01*
X129771428Y-49535471D02*
X129699999Y-49392614D01*
X129699999Y-49392614D02*
X129628571Y-49106900D01*
X129628571Y-49106900D02*
X129628571Y-48749757D01*
X129628571Y-48749757D02*
X129699999Y-48464042D01*
X129699999Y-48464042D02*
X129771428Y-48321185D01*
X129771428Y-48321185D02*
X129842857Y-48249757D01*
X129842857Y-48249757D02*
X129985714Y-48178328D01*
X132271427Y-49678328D02*
X132271427Y-48678328D01*
X132271427Y-48821185D02*
X132342856Y-48749757D01*
X132342856Y-48749757D02*
X132485713Y-48678328D01*
X132485713Y-48678328D02*
X132699999Y-48678328D01*
X132699999Y-48678328D02*
X132842856Y-48749757D01*
X132842856Y-48749757D02*
X132914285Y-48892614D01*
X132914285Y-48892614D02*
X132914285Y-49678328D01*
X132914285Y-48892614D02*
X132985713Y-48749757D01*
X132985713Y-48749757D02*
X133128570Y-48678328D01*
X133128570Y-48678328D02*
X133342856Y-48678328D01*
X133342856Y-48678328D02*
X133485713Y-48749757D01*
X133485713Y-48749757D02*
X133557142Y-48892614D01*
X133557142Y-48892614D02*
X133557142Y-49678328D01*
X134271427Y-49678328D02*
X134271427Y-48678328D01*
X134271427Y-48821185D02*
X134342856Y-48749757D01*
X134342856Y-48749757D02*
X134485713Y-48678328D01*
X134485713Y-48678328D02*
X134699999Y-48678328D01*
X134699999Y-48678328D02*
X134842856Y-48749757D01*
X134842856Y-48749757D02*
X134914285Y-48892614D01*
X134914285Y-48892614D02*
X134914285Y-49678328D01*
X134914285Y-48892614D02*
X134985713Y-48749757D01*
X134985713Y-48749757D02*
X135128570Y-48678328D01*
X135128570Y-48678328D02*
X135342856Y-48678328D01*
X135342856Y-48678328D02*
X135485713Y-48749757D01*
X135485713Y-48749757D02*
X135557142Y-48892614D01*
X135557142Y-48892614D02*
X135557142Y-49678328D01*
D12*
X105000000Y-55800000D02*
X105000000Y-50213580D01*
X152400000Y-55800000D02*
X152400000Y-50213580D01*
X105000000Y-50800000D02*
X152400000Y-50800000D01*
X105000000Y-50800000D02*
X152400000Y-50800000D01*
X105000000Y-50800000D02*
X106126504Y-50213579D01*
X105000000Y-50800000D02*
X106126504Y-51386421D01*
X152400000Y-50800000D02*
X151273496Y-51386421D01*
X152400000Y-50800000D02*
X151273496Y-50213579D01*
D10*
D11*
X98978329Y-110999998D02*
X98978329Y-109999998D01*
X98978329Y-109999998D02*
X100478329Y-110642855D01*
X98978329Y-109142855D02*
X98978329Y-108999998D01*
X98978329Y-108999998D02*
X99049758Y-108857141D01*
X99049758Y-108857141D02*
X99121186Y-108785713D01*
X99121186Y-108785713D02*
X99264043Y-108714284D01*
X99264043Y-108714284D02*
X99549758Y-108642855D01*
X99549758Y-108642855D02*
X99906901Y-108642855D01*
X99906901Y-108642855D02*
X100192615Y-108714284D01*
X100192615Y-108714284D02*
X100335472Y-108785713D01*
X100335472Y-108785713D02*
X100406901Y-108857141D01*
X100406901Y-108857141D02*
X100478329Y-108999998D01*
X100478329Y-108999998D02*
X100478329Y-109142855D01*
X100478329Y-109142855D02*
X100406901Y-109285713D01*
X100406901Y-109285713D02*
X100335472Y-109357141D01*
X100335472Y-109357141D02*
X100192615Y-109428570D01*
X100192615Y-109428570D02*
X99906901Y-109499998D01*
X99906901Y-109499998D02*
X99549758Y-109499998D01*
X99549758Y-109499998D02*
X99264043Y-109428570D01*
X99264043Y-109428570D02*
X99121186Y-109357141D01*
X99121186Y-109357141D02*
X99049758Y-109285713D01*
X99049758Y-109285713D02*
X98978329Y-109142855D01*
X100335472Y-107999999D02*
X100406901Y-107928570D01*
X100406901Y-107928570D02*
X100478329Y-107999999D01*
X100478329Y-107999999D02*
X100406901Y-108071427D01*
X100406901Y-108071427D02*
X100335472Y-107999999D01*
X100335472Y-107999999D02*
X100478329Y-107999999D01*
X98978329Y-106999998D02*
X98978329Y-106857141D01*
X98978329Y-106857141D02*
X99049758Y-106714284D01*
X99049758Y-106714284D02*
X99121186Y-106642856D01*
X99121186Y-106642856D02*
X99264043Y-106571427D01*
X99264043Y-106571427D02*
X99549758Y-106499998D01*
X99549758Y-106499998D02*
X99906901Y-106499998D01*
X99906901Y-106499998D02*
X100192615Y-106571427D01*
X100192615Y-106571427D02*
X100335472Y-106642856D01*
X100335472Y-106642856D02*
X100406901Y-106714284D01*
X100406901Y-106714284D02*
X100478329Y-106857141D01*
X100478329Y-106857141D02*
X100478329Y-106999998D01*
X100478329Y-106999998D02*
X100406901Y-107142856D01*
X100406901Y-107142856D02*
X100335472Y-107214284D01*
X100335472Y-107214284D02*
X100192615Y-107285713D01*
X100192615Y-107285713D02*
X99906901Y-107357141D01*
X99906901Y-107357141D02*
X99549758Y-107357141D01*
X99549758Y-107357141D02*
X99264043Y-107285713D01*
X99264043Y-107285713D02*
X99121186Y-107214284D01*
X99121186Y-107214284D02*
X99049758Y-107142856D01*
X99049758Y-107142856D02*
X98978329Y-106999998D01*
X98978329Y-105571427D02*
X98978329Y-105428570D01*
X98978329Y-105428570D02*
X99049758Y-105285713D01*
X99049758Y-105285713D02*
X99121186Y-105214285D01*
X99121186Y-105214285D02*
X99264043Y-105142856D01*
X99264043Y-105142856D02*
X99549758Y-105071427D01*
X99549758Y-105071427D02*
X99906901Y-105071427D01*
X99906901Y-105071427D02*
X100192615Y-105142856D01*
X100192615Y-105142856D02*
X100335472Y-105214285D01*
X100335472Y-105214285D02*
X100406901Y-105285713D01*
X100406901Y-105285713D02*
X100478329Y-105428570D01*
X100478329Y-105428570D02*
X100478329Y-105571427D01*
X100478329Y-105571427D02*
X100406901Y-105714285D01*
X100406901Y-105714285D02*
X100335472Y-105785713D01*
X100335472Y-105785713D02*
X100192615Y-105857142D01*
X100192615Y-105857142D02*
X99906901Y-105928570D01*
X99906901Y-105928570D02*
X99549758Y-105928570D01*
X99549758Y-105928570D02*
X99264043Y-105857142D01*
X99264043Y-105857142D02*
X99121186Y-105785713D01*
X99121186Y-105785713D02*
X99049758Y-105714285D01*
X99049758Y-105714285D02*
X98978329Y-105571427D01*
X98978329Y-104142856D02*
X98978329Y-103999999D01*
X98978329Y-103999999D02*
X99049758Y-103857142D01*
X99049758Y-103857142D02*
X99121186Y-103785714D01*
X99121186Y-103785714D02*
X99264043Y-103714285D01*
X99264043Y-103714285D02*
X99549758Y-103642856D01*
X99549758Y-103642856D02*
X99906901Y-103642856D01*
X99906901Y-103642856D02*
X100192615Y-103714285D01*
X100192615Y-103714285D02*
X100335472Y-103785714D01*
X100335472Y-103785714D02*
X100406901Y-103857142D01*
X100406901Y-103857142D02*
X100478329Y-103999999D01*
X100478329Y-103999999D02*
X100478329Y-104142856D01*
X100478329Y-104142856D02*
X100406901Y-104285714D01*
X100406901Y-104285714D02*
X100335472Y-104357142D01*
X100335472Y-104357142D02*
X100192615Y-104428571D01*
X100192615Y-104428571D02*
X99906901Y-104499999D01*
X99906901Y-104499999D02*
X99549758Y-104499999D01*
X99549758Y-104499999D02*
X99264043Y-104428571D01*
X99264043Y-104428571D02*
X99121186Y-104357142D01*
X99121186Y-104357142D02*
X99049758Y-104285714D01*
X99049758Y-104285714D02*
X98978329Y-104142856D01*
X98978329Y-102714285D02*
X98978329Y-102571428D01*
X98978329Y-102571428D02*
X99049758Y-102428571D01*
X99049758Y-102428571D02*
X99121186Y-102357143D01*
X99121186Y-102357143D02*
X99264043Y-102285714D01*
X99264043Y-102285714D02*
X99549758Y-102214285D01*
X99549758Y-102214285D02*
X99906901Y-102214285D01*
X99906901Y-102214285D02*
X100192615Y-102285714D01*
X100192615Y-102285714D02*
X100335472Y-102357143D01*
X100335472Y-102357143D02*
X100406901Y-102428571D01*
X100406901Y-102428571D02*
X100478329Y-102571428D01*
X100478329Y-102571428D02*
X100478329Y-102714285D01*
X100478329Y-102714285D02*
X100406901Y-102857143D01*
X100406901Y-102857143D02*
X100335472Y-102928571D01*
X100335472Y-102928571D02*
X100192615Y-103000000D01*
X100192615Y-103000000D02*
X99906901Y-103071428D01*
X99906901Y-103071428D02*
X99549758Y-103071428D01*
X99549758Y-103071428D02*
X99264043Y-103000000D01*
X99264043Y-103000000D02*
X99121186Y-102928571D01*
X99121186Y-102928571D02*
X99049758Y-102857143D01*
X99049758Y-102857143D02*
X98978329Y-102714285D01*
X100478329Y-100428572D02*
X99478329Y-100428572D01*
X99621186Y-100428572D02*
X99549758Y-100357143D01*
X99549758Y-100357143D02*
X99478329Y-100214286D01*
X99478329Y-100214286D02*
X99478329Y-100000000D01*
X99478329Y-100000000D02*
X99549758Y-99857143D01*
X99549758Y-99857143D02*
X99692615Y-99785715D01*
X99692615Y-99785715D02*
X100478329Y-99785715D01*
X99692615Y-99785715D02*
X99549758Y-99714286D01*
X99549758Y-99714286D02*
X99478329Y-99571429D01*
X99478329Y-99571429D02*
X99478329Y-99357143D01*
X99478329Y-99357143D02*
X99549758Y-99214286D01*
X99549758Y-99214286D02*
X99692615Y-99142857D01*
X99692615Y-99142857D02*
X100478329Y-99142857D01*
X100478329Y-98428572D02*
X99478329Y-98428572D01*
X99621186Y-98428572D02*
X99549758Y-98357143D01*
X99549758Y-98357143D02*
X99478329Y-98214286D01*
X99478329Y-98214286D02*
X99478329Y-98000000D01*
X99478329Y-98000000D02*
X99549758Y-97857143D01*
X99549758Y-97857143D02*
X99692615Y-97785715D01*
X99692615Y-97785715D02*
X100478329Y-97785715D01*
X99692615Y-97785715D02*
X99549758Y-97714286D01*
X99549758Y-97714286D02*
X99478329Y-97571429D01*
X99478329Y-97571429D02*
X99478329Y-97357143D01*
X99478329Y-97357143D02*
X99549758Y-97214286D01*
X99549758Y-97214286D02*
X99692615Y-97142857D01*
X99692615Y-97142857D02*
X100478329Y-97142857D01*
D12*
X104500000Y-69000000D02*
X101013581Y-69000000D01*
X104500000Y-139000000D02*
X101013581Y-139000000D01*
X101600001Y-69000000D02*
X101600001Y-139000000D01*
X101600001Y-69000000D02*
X101600001Y-139000000D01*
X101600001Y-69000000D02*
X102186422Y-70126504D01*
X101600001Y-69000000D02*
X101013580Y-70126504D01*
X101600001Y-139000000D02*
X101013580Y-137873496D01*
X101600001Y-139000000D02*
X102186422Y-137873496D01*
D13*
%TO.P,R2,1,1*%
%TO.N,Net-(J3-Pin_5)*%
X112680000Y-98600000D03*
D14*
%TO.P,R2,2,2*%
%TO.N,Net-(J3-Pin_14)*%
X122840000Y-98600000D03*
%TD*%
%TO.P,R1,2,2*%
%TO.N,Net-(J3-Pin_5)*%
X123380000Y-93750000D03*
D13*
%TO.P,R1,1,1*%
%TO.N,Net-(J7-Pin_1)*%
X113220000Y-93750000D03*
%TD*%
D15*
%TO.P,J3,2*%
%TO.N,N/C*%
X129000000Y-76140000D03*
%TO.P,J3,3*%
X129000000Y-78680000D03*
%TO.P,J3,5V,Pin_12*%
%TO.N,Net-(J3-Pin_12)*%
X129000000Y-101540000D03*
%TO.P,J3,6*%
%TO.N,N/C*%
X129000000Y-86300000D03*
%TO.P,J3,7*%
X129000000Y-88840000D03*
%TO.P,J3,8*%
X129000000Y-91380000D03*
%TO.P,J3,9*%
X129000000Y-93920000D03*
%TO.P,J3,10*%
X129000000Y-96460000D03*
%TO.P,J3,11*%
X129000000Y-99000000D03*
%TO.P,J3,13*%
X129000000Y-104080000D03*
%TO.P,J3,15*%
X129000000Y-109160000D03*
%TO.P,J3,A0,Pin_4*%
%TO.N,unconnected-(J3-Pin_4-PadA0)*%
X129000000Y-81220000D03*
%TO.P,J3,A1,Pin_5*%
%TO.N,Net-(J3-Pin_5)*%
X129000000Y-83760000D03*
D16*
%TO.P,J3,D13,Pin_1*%
%TO.N,unconnected-(J3-Pin_1-PadD13)*%
X129000000Y-73600000D03*
D15*
%TO.P,J3,GND,Pin_14*%
%TO.N,Net-(J3-Pin_14)*%
X129000000Y-106620000D03*
%TD*%
%TO.P,J6, MS2*%
%TO.N,N/C*%
X141700000Y-130620000D03*
%TO.P,J6,3*%
X141700000Y-123000000D03*
D16*
%TO.P,J6,Dir,1*%
%TO.N,unconnected-(J6-1-PadDir)*%
X141700000Y-117920000D03*
D15*
%TO.P,J6,EN,Pin_8*%
%TO.N,Net-(J5-Pin_12)*%
X141700000Y-135700000D03*
%TO.P,J6,MS1,Pin_7*%
%TO.N,unconnected-(J6-Pin_7-PadMS1)*%
X141700000Y-133160000D03*
%TO.P,J6,PDN,Pin_4*%
%TO.N,unconnected-(J6-Pin_4-PadPDN)*%
X141700000Y-125540000D03*
%TO.P,J6,Step,Pin_2*%
%TO.N,Net-(J5-Pin_3)*%
X141700000Y-120460000D03*
%TO.P,J6,UART,Pin_5*%
%TO.N,Net-(J5-Pin_10)*%
X141700000Y-128080000D03*
%TD*%
D17*
%TO.P,J7,1,Pin_1*%
%TO.N,Net-(J7-Pin_1)*%
X115300000Y-76120000D03*
D18*
%TO.P,J7,2,Pin_2*%
%TO.N,Net-(J3-Pin_14)*%
X115300000Y-81200000D03*
%TO.P,J7,3,Pin_3*%
%TO.N,Net-(J4-Pin_8)*%
X115300000Y-86280000D03*
%TD*%
D19*
%TO.P,J1,1*%
%TO.N,Net-(J4-Pin_8)*%
X122000000Y-108000000D03*
D20*
%TO.P,J1,2*%
%TO.N,Net-(J3-Pin_14)*%
X116000000Y-108000000D03*
D21*
%TO.P,J1,3*%
%TO.N,N/C*%
X119000000Y-112700000D03*
%TD*%
D16*
%TO.P,J5,1*%
%TO.N,N/C*%
X144239900Y-73660000D03*
D15*
%TO.P,J5,2*%
X144239900Y-76200000D03*
%TO.P,J5,13*%
X144239900Y-104140000D03*
%TO.P,J5,14*%
X144239900Y-106680000D03*
%TO.P,J5,D2,Pin_11*%
%TO.N,unconnected-(J5-Pin_11-PadD2)*%
X144239900Y-99060000D03*
%TO.P,J5,D3,Pin_10*%
%TO.N,Net-(J5-Pin_10)*%
X144239900Y-96520000D03*
%TO.P,J5,D4,Pin_9*%
%TO.N,unconnected-(J5-Pin_9-PadD4)*%
X144239900Y-93980000D03*
%TO.P,J5,D5,Pin_8*%
%TO.N,unconnected-(J5-Pin_8-PadD5)*%
X144239900Y-91440000D03*
%TO.P,J5,D6,Pin_7*%
%TO.N,unconnected-(J5-Pin_7-PadD6)*%
X144239900Y-88900000D03*
%TO.P,J5,D7,Pin_6*%
%TO.N,unconnected-(J5-Pin_6-PadD7)*%
X144239900Y-86360000D03*
%TO.P,J5,D8,Pin_5*%
%TO.N,unconnected-(J5-Pin_5-PadD8)*%
X144239900Y-83820000D03*
%TO.P,J5,D9,Pin_4*%
%TO.N,unconnected-(J5-Pin_4-PadD9)*%
X144239900Y-81280000D03*
%TO.P,J5,D10,Pin_3*%
%TO.N,Net-(J5-Pin_3)*%
X144239900Y-78740000D03*
%TO.P,J5,GND,Pin_12*%
%TO.N,Net-(J5-Pin_12)*%
X144239900Y-101600000D03*
%TO.P,J5,TX1,Pin_15*%
%TO.N,unconnected-(J5-Pin_15-PadTX1)*%
X144239900Y-109220000D03*
%TD*%
D17*
%TO.P,J2,1,Pin_1*%
%TO.N,Net-(J2-Pin_1)*%
X115695000Y-119500000D03*
D18*
%TO.P,J2,2,Pin_2*%
%TO.N,Net-(J2-Pin_2)*%
X115695000Y-124500000D03*
%TO.P,J2,3,Pin_3*%
%TO.N,Net-(J2-Pin_3)*%
X115695000Y-129500000D03*
%TO.P,J2,4,Pin_4*%
%TO.N,Net-(J2-Pin_4)*%
X115695000Y-134500000D03*
%TD*%
D16*
%TO.P,J4,GND,Pin_1*%
%TO.N,Net-(J3-Pin_14)*%
X129000000Y-117920000D03*
D15*
X129000000Y-133160000D03*
%TO.P,J4,M1A,Pin_4*%
%TO.N,Net-(J2-Pin_2)*%
X129000000Y-125540000D03*
%TO.P,J4,M1B,Pin_3*%
%TO.N,Net-(J2-Pin_1)*%
X129000000Y-123000000D03*
%TO.P,J4,M2A,Pin_5*%
%TO.N,Net-(J2-Pin_3)*%
X129000000Y-128080000D03*
%TO.P,J4,M2B,Pin_6*%
%TO.N,Net-(J2-Pin_4)*%
X129000000Y-130620000D03*
%TO.P,J4,VIO,Pin_2*%
%TO.N,Net-(J3-Pin_12)*%
X129000000Y-120460000D03*
%TO.P,J4,VM,Pin_8*%
%TO.N,Net-(J4-Pin_8)*%
X129000000Y-135700000D03*
%TD*%
D22*
%TO.N,Net-(J3-Pin_14)*%
X122840000Y-101160000D02*
X116000000Y-108000000D01*
X129000000Y-106620000D02*
X123540000Y-101160000D01*
X123540000Y-101160000D02*
X122840000Y-101160000D01*
X122840000Y-101160000D02*
X122840000Y-98600000D01*
%TO.N,Net-(J3-Pin_5)*%
X123380000Y-93750000D02*
X123380000Y-89380000D01*
X123380000Y-89380000D02*
X129000000Y-83760000D01*
X115990000Y-98600000D02*
X120840000Y-93750000D01*
X120840000Y-93750000D02*
X123380000Y-93750000D01*
%TO.N,Net-(J2-Pin_1)*%
X125500000Y-119500000D02*
X129000000Y-123000000D01*
X115695000Y-119500000D02*
X125500000Y-119500000D01*
%TO.N,Net-(J2-Pin_2)*%
X115695000Y-124500000D02*
X127960000Y-124500000D01*
X127960000Y-124500000D02*
X129000000Y-125540000D01*
%TO.N,Net-(J2-Pin_3)*%
X127580000Y-129500000D02*
X129000000Y-128080000D01*
X115695000Y-129500000D02*
X127580000Y-129500000D01*
%TO.N,Net-(J2-Pin_4)*%
X115695000Y-134500000D02*
X125120000Y-134500000D01*
X125120000Y-134500000D02*
X129000000Y-130620000D01*
%TO.N,Net-(J3-Pin_12)*%
X130202081Y-120460000D02*
X129000000Y-120460000D01*
X129000000Y-101540000D02*
X130625000Y-103165000D01*
X130625000Y-103165000D02*
X130625000Y-120037081D01*
X130625000Y-120037081D02*
X130202081Y-120460000D01*
%TO.N,Net-(J5-Pin_3)*%
X143753199Y-102775000D02*
X144726601Y-102775000D01*
X143943199Y-100425000D02*
X143064900Y-99546701D01*
X145414900Y-101113299D02*
X144726601Y-100425000D01*
X143064900Y-99546701D02*
X143064900Y-79915000D01*
X141700000Y-120460000D02*
X142875000Y-119285000D01*
X142875000Y-103653199D02*
X143753199Y-102775000D01*
X143064900Y-79915000D02*
X144239900Y-78740000D01*
X142875000Y-119285000D02*
X142875000Y-103653199D01*
X145414900Y-102086701D02*
X145414900Y-101113299D01*
X144726601Y-102775000D02*
X145414900Y-102086701D01*
X144726601Y-100425000D02*
X143943199Y-100425000D01*
%TO.N,Net-(J5-Pin_12)*%
X140525000Y-134525000D02*
X140525000Y-105314900D01*
X141700000Y-135700000D02*
X140525000Y-134525000D01*
X140525000Y-105314900D02*
X144239900Y-101600000D01*
%TO.N,Net-(J3-Pin_14)*%
X129000000Y-110821701D02*
X129000000Y-117920000D01*
X129000000Y-106620000D02*
X130175000Y-107795000D01*
X130175000Y-109646701D02*
X129000000Y-110821701D01*
X130175000Y-107795000D02*
X130175000Y-109646701D01*
%TO.N,Net-(J3-Pin_5)*%
X112680000Y-98600000D02*
X115990000Y-98600000D01*
%TD*%
M02*
